# xmcd
#
# Track frame offsets:
#	150
#	16735
#	35460
#	48392
#	64427
#	82007
#	102370
#	115205
#	134532
#	156595
#	172962
#	193005
#	207565
#	223945
#	233582
#	247557
#
# Disc length: 3578 seconds
#
# Revision: 1
# Processed by: cddbd v1.5.1PL0 Copyright (c) Steve Scherf et al.
# Submitted via: CDex 1.50Beta5
#
DISCID=e30df810
DTITLE=北島三郎 - 股旅演歌全曲集
DYEAR=1998
DGENRE=World
TTITLE0=夕焼け三度笠
TTITLE1=上州鴉
TTITLE2=旅笠道中
TTITLE3=大利根月夜
TTITLE4=浪人独り旅
TTITLE5=次郎長笠
TTITLE6=流転笠
TTITLE7=名月赤城山
TTITLE8=次郎長富士
TTITLE9=旅姿三人男
TTITLE10=石松おとこ笠
TTITLE11=次男坊鴉
TTITLE12=浪人まかり通る
TTITLE13=大江戸出世小唄
TTITLE14=おしどり道中
TTITLE15=啼くな夜鴉
EXTD=
EXTT0=
EXTT1=
EXTT2=
EXTT3=
EXTT4=
EXTT5=
EXTT6=
EXTT7=
EXTT8=
EXTT9=
EXTT10=
EXTT11=
EXTT12=
EXTT13=
EXTT14=
EXTT15=
PLAYORDER=
